<svg fill="none" height="20" viewBox="0 0 235 20" width="235" xmlns="http://www.w3.org/2000/svg"><g clip-rule="evenodd" fill-rule="evenodd"><path d="m11 11.3333c0 1.6067 0 2.5-.5835 3.0832-.58325.5835-1.47638.5835-3.08317.5835h-3.66666c-1.60663 0-2.49992 0-3.083216-.5835-.583454-.5832-.583454-1.4765-.583454-3.0832v-3.66663c0-1.60679 0-2.49992.583454-3.08338.583296-.58329 1.476586-.58329 3.083216-.58329h3.66666c1.60679 0 2.49992 0 3.08317.58329.5835.58346.5835 1.47659.5835 3.08338z" fill="#f00"/><path d="m51.0147 8.64016-1.8224-.27872c-1.0077-.15024-1.4096-.42-1.4096-.93472 0-.66464.5133-1.1032 1.7466-1.1032 1.2332 0 1.8996.57952 1.8996 1.30208h2.8935c0-1.41168-1.4551-3.62928-4.7931-3.62928-3.0018 0-4.5639 1.608-4.5639 3.4304 0 1.82256 1.3317 2.79378 3.5829 3.15828l1.7302.2648c1.2008.1928 1.4413.6108 1.4413 1.1408 0 .5299-.5065 1.042-1.9456 1.042-1.4392 0-2.0526-.7204-2.0526-1.3024h-2.8939c0 .7964.8726 3.6296 4.9465 3.6296 3.1947 0 4.7627-1.5681 4.7627-3.3692 0-1.9511-1.271-3.0074-3.5222-3.35044zm13.6854-8.64016h-2.8969v10.5885c0 2.9541 1.4713 4.5569 4.5545 4.5569h2.8117v-2.6921h-2.2641c-1.5223 0-2.2052-.6163-2.2052-2.2077v-3.34256h4.4693v-2.69248h-4.4693zm-36.6665 9.67808c0-1.73216-1.1538-2.98944-2.7432-2.98944-1.5787 0-2.7107 1.25728-2.7107 2.98944 0 1.73212 1.132 2.98942 2.7107 2.98942 1.5894 0 2.7432-1.2574 2.7432-2.98942zm2.8971 0c0 3.28622-2.032 5.68192-5.0099 5.68192-1.3311 0-2.4195-.5342-3.0906-1.2662h-.2505v5.2622h-2.8968v-15.14544h2.8968v1.05248h.25c.725-.81296 1.8544-1.26672 3.0911-1.26672 2.9779 0 5.0099 2.39552 5.0099 5.68176zm58.7168-1.2184h5.2506c-.3935-1.2224-1.3808-2.02656-2.6344-2.02656-1.245 0-2.2256.80416-2.6162 2.02656zm8.3011 1.2184c0 .28896-.0259.56812-.0635.84222l.0059.009h-.0069-2.8857-5.4482c.2951 1.4259 1.3383 2.3937 2.8053 2.3937.9336 0 1.833-.4107 2.2984-1.1336h3.0955c-.7381 2.173-2.9409 3.5704-5.3939 3.5704-3.3059 0-5.7573-2.4152-5.7573-5.68172 0-3.28624 2.5357-5.68176 5.6655-5.68176 3.1494 0 5.6849 2.39552 5.6849 5.68176zm-26.9243 5.46732h2.8968v-10.93484h-2.8968zm0-12.45292h2.8968v-2.69248h-2.8968zm-14.6738 12.45292h2.897v-10.93484h-2.897zm0-12.45292h2.897v-2.69248h-2.897zm-15.656 6.9856c0-1.73216-1.1724-2.98944-2.788-2.98944-1.6041 0-2.7683 1.25728-2.7683 2.98944 0 1.73202 1.1642 2.98932 2.7683 2.98932 1.6418 0 2.788-1.2293 2.788-2.98932zm2.897 0c0 3.28622-2.4957 5.68172-5.685 5.68172-3.1692 0-5.6654-2.4152-5.6654-5.68172 0-3.2864 2.5357-5.68176 5.6654-5.68176 3.1495 0 5.685 2.39536 5.685 5.68176zm37.4541 2.77502h-.4592l-2.2418-8.24254h-3.0222l3.2984 10.93484h4.3905l3.2984-10.93484h-3.0222zm150.3294-3.81294-1.822-.27872c-1.008-.15024-1.41-.42-1.41-.93472 0-.66464.513-1.1032 1.747-1.1032 1.233 0 1.899.57952 1.899 1.30208h2.894c0-1.41168-1.455-3.62928-4.793-3.62928-3.002 0-4.564 1.608-4.564 3.4304 0 1.82256 1.332 2.79378 3.583 3.15828l1.73.2648c1.201.1928 1.441.6108 1.441 1.1408 0 .5299-.506 1.042-1.945 1.042s-2.053-.7204-2.053-1.3024h-2.894c0 .7964.873 3.6296 4.947 3.6296 3.194 0 4.762-1.5681 4.762-3.3692 0-1.9511-1.271-3.0074-3.522-3.35044zm-31.688 3.86364c1.578 0 2.71-1.2331 2.71-2.93212v-.00176c0-1.69904-1.132-2.93216-2.71-2.93216-1.59 0-2.744 1.2336-2.744 2.93296 0 1.69948 1.154 2.93308 2.744 2.93308zm2.71-8.29324h2.897v11.16224c0 2.9541-1.471 4.5571-4.554 4.5571h-5.022v-2.6923h4.474c1.522 0 2.205-.6162 2.205-2.2077v-1.1267h-.25c-.671.7182-1.76 1.2422-3.091 1.2422-2.978 0-5.01-2.3502-5.01-5.57468 0-3.22416 2.032-5.5744 5.01-5.5744 1.237 0 2.366.4448 3.091 1.24224.003.00304.014.01568.022.02448h.228zm-44.461-.21424c-1.252 0-2.347.43984-3.083 1.26672h-.217v-1.05248h-2.897v10.93484h2.897v-6.17276c0-1.35808.962-2.284 2.329-2.284 1.368 0 2.331.92592 2.331 2.284v6.17276h2.896v-6.61212c0-2.67808-1.751-4.53696-4.256-4.53696zm18.813 11.14908h2.897v-15.1454h-2.897zm38.819-6.68572h5.251c-.394-1.2224-1.381-2.02656-2.634-2.02656-1.245 0-2.226.80416-2.617 2.02656zm8.302 1.2184c0 .28896-.027.56812-.064.84242l.006.0088h-.007-2.886-5.448c.295 1.4259 1.338 2.3937 2.805 2.3937.934 0 1.833-.4107 2.299-1.1336h3.095c-.738 2.173-2.941 3.5704-5.394 3.5704-3.306 0-5.757-2.4152-5.757-5.68172 0-3.28624 2.536-5.68176 5.666-5.68176 3.149 0 5.685 2.39552 5.685 5.68176zm-16.02 5.46732h2.897v-10.93484h-2.897zm0-12.45292h2.897v-2.69248h-2.897zm-18.102 6.9856c0-1.73216-1.172-2.98944-2.788-2.98944-1.604 0-2.768 1.25728-2.768 2.98944 0 1.73202 1.164 2.98932 2.768 2.98932 1.642 0 2.788-1.2293 2.788-2.98932zm2.897 0c0 3.28622-2.495 5.68172-5.685 5.68172-3.169 0-5.665-2.4152-5.665-5.68172 0-3.2864 2.535-5.68176 5.665-5.68176 3.15 0 5.685 2.39536 5.685 5.68176zm-20.441 0c0-1.73216-1.173-2.98944-2.788-2.98944-1.605 0-2.769 1.25728-2.769 2.98944 0 1.73202 1.164 2.98932 2.769 2.98932 1.641 0 2.788-1.2293 2.788-2.98932zm2.897 0c0 3.28622-2.496 5.68172-5.685 5.68172-3.17 0-5.666-2.4152-5.666-5.68172 0-3.2864 2.536-5.68176 5.666-5.68176 3.149 0 5.685 2.39536 5.685 5.68176zm-67.229-9.67808h-2.897v10.5885c0 2.9541 1.472 4.5569 4.555 4.5569h2.811v-2.6921h-2.264c-1.522 0-2.205-.6163-2.205-2.2077v-3.34256h4.469v-2.69248h-4.469zm23.994 12.6674c-1.604 0-2.722-1.2573-2.722-2.98932 0-1.73216 1.118-2.98944 2.722-2.98944 1.195 0 2.093.58464 2.423 1.70144h2.996c-.39-2.67008-2.682-4.39376-5.419-4.39376-3.13 0-5.619 2.39552-5.619 5.68176 0 3.26652 2.45 5.68172 5.619 5.68172 2.772 0 5.038-1.8644 5.421-4.4857h-2.989c-.276 1.1038-1.213 1.7933-2.432 1.7933zm13.267-8.67108c-1.252 0-2.347.43984-3.083 1.26672h-.218v-5.26304h-2.897v15.1454h2.897v-6.17276c0-1.35808.963-2.284 2.33-2.284s2.33.92592 2.33 2.284v6.17276h2.897v-6.61212c0-2.67808-1.751-4.53696-4.256-4.53696zm-28.588 4.46336h5.25c-.393-1.2224-1.381-2.02656-2.634-2.02656-1.245 0-2.226.80416-2.616 2.02656zm8.301 1.2184c0 .28896-.027.56812-.064.84242l.006.0088h-.007-2.885-5.449c.295 1.4259 1.338 2.3937 2.805 2.3937.934 0 1.833-.4107 2.299-1.1336h3.095c-.738 2.173-2.941 3.5704-5.394 3.5704-3.306 0-5.757-2.4152-5.757-5.68172 0-3.28624 2.536-5.68176 5.666-5.68176 3.149 0 5.685 2.39552 5.685 5.68176z" fill="#212121"/></g></svg>