<svg fill="none" height="30" viewBox="0 0 30 30" width="30" xmlns="http://www.w3.org/2000/svg"><g clip-rule="evenodd" fill-rule="evenodd"><path d="m0 24c0 2.6292 0 4.0908.954615 5.0454s2.416205.9546 5.045385.9546h18c2.6292 0 4.0908 0 5.0454-.9546s.9546-2.4162.9546-5.0454v-18c0-2.62918 0-4.09077-.9546-5.045385s-2.4162-.954615-5.0454-.954615h-18c-2.62918 0-4.09077 0-5.045385.954615s-.954615 2.416205-.954615 5.045385z" fill="#f00"/><path d="m20.2885 12.4475v3.0573c0 1.4556.6247 2.0192 2.0169 2.0192h2.071v2.4623h-2.572c-2.8197 0-4.1654-1.466-4.1654-4.1679v-9.68461h2.6495v3.85112h4.0879v2.46259zm-9.2476 5.2726c-1.44397 0-2.47919-1.15-2.47919-2.7343s1.03522-2.7342 2.47919-2.7342c1.4537 0 2.509 1.1499 2.509 2.7342 0 1.5842-1.0553 2.7343-2.509 2.7343zm.5766-7.93114c-1.1311 0-2.1637.41474-2.82677 1.15834 0 0-.00029.0002-.00044.0004h-.22858v-.96264h-2.64966v13.85254h2.64966v-4.813h.22902c.6139.6695 1.60947 1.1581 2.82677 1.1581 2.7237 0 4.5822-2.1912 4.5822-5.1969s-1.8585-5.19684-4.5822-5.19684z" fill="#fff"/></g></svg>