<svg xmlns="http://www.w3.org/2000/svg" fill="none" viewBox="0 0 30 30">
  <path fill="red" d="M0 24c0 2.63 0 4.1.95 5.05C1.91 30 3.37 30 6 30h18c2.63 0 4.1 0 5.05-.95.95-.96.95-2.42.95-5.05V6c0-2.63 0-4.1-.95-5.05C28.09 0 26.63 0 24 0H6C3.37 0 1.9 0 .95.95 0 1.91 0 3.37 0 6v18Z"/>
  <path fill="#fff" d="M20.29 12.45v3.05c0 1.46.62 2.02 2.02 2.02h2.07V20H21.8c-2.82 0-4.16-1.47-4.16-4.17V6.13h2.65v3.85h4.09v2.47h-4.1Zm-9.25 5.27c-1.44 0-2.48-1.15-2.48-2.73 0-1.59 1.04-2.74 2.48-2.74 1.45 0 2.51 1.15 2.51 2.74 0 1.58-1.06 2.73-2.5 2.73Zm.58-7.93c-1.13 0-2.17.41-2.83 1.16h-.23v-.96H5.91v13.85h2.65v-4.82h.23a3.8 3.8 0 0 0 2.83 1.16c2.72 0 4.58-2.19 4.58-5.2 0-3-1.86-5.2-4.58-5.2Z"/>
</svg>