<svg fill="none" height="40" viewBox="0 0 168 40" width="168" xmlns="http://www.w3.org/2000/svg" xmlns:xlink="http://www.w3.org/1999/xlink"><clipPath id="a"><path d="m0 0h168v40h-168z"/></clipPath><g clip-path="url(#a)" clip-rule="evenodd" fill-rule="evenodd"><path d="m0 10.2c0-2.71684 0-4.22714.986436-5.21357.986434-.98643 2.496744-.98643 5.213564-.98643h18.6c2.7168 0 4.2271 0 5.2136.98643.9864.98643.9864 2.49673.9864 5.21357v18.5999c0 2.7168 0 4.2271-.9864 5.2135-.9865.9866-2.4968.9866-5.2136.9866h-18.6c-2.71682 0-4.22713 0-5.213564-.9866-.986436-.9864-.986436-2.4967-.986436-5.2135z" fill="#f00"/><path d="m77.033 11.4414c0 1.7186-1.4963 3.2149-4.5447 3.2149-3.8872 0-4.7199-2.7035-4.7199-3.4633h2.7613c0 .5552.5853 1.2427 1.9586 1.2427 1.3734 0 1.8566-.4887 1.8566-.9943 0-.5058-.2294-.9048-1.3751-1.0887l-1.6513-.2525c-2.1479-.34783-3.4186-1.2747-3.4186-3.01363 0-1.73894 1.4904-3.27344 4.3546-3.27344 3.1852 0 4.5738 2.11618 4.5738 3.46336h-2.7611c0-.68977-.6359-1.24275-1.8127-1.24275s-1.6665.41847-1.6665 1.05283c0 .49099.3835.74854 1.3452.89175l1.7389.26611c2.1481.32717 3.3609 1.33526 3.3609 3.19697zm90.714 20.834c0 1.7186-1.496 3.2148-4.545 3.2148-3.887 0-4.72-2.7035-4.72-3.4632h2.762c0 .5553.585 1.2428 1.958 1.2428s1.857-.4889 1.857-.9944c0-.5058-.23-.9047-1.375-1.0887l-1.651-.2525c-2.149-.3479-3.419-1.2747-3.419-3.0137 0-1.7388 1.49-3.2733 4.354-3.2733 3.186 0 4.574 2.1159 4.574 3.4632h-2.761c0-.6896-.636-1.2426-1.813-1.2426s-1.666.4185-1.666 1.0527c0 .4911.383.7487 1.345.8919l1.739.2659c2.148.3273 3.361 1.3354 3.361 3.1971zm-36.216-2.309c0-1.6215 1.101-2.7986 2.618-2.7986 1.506 0 2.586 1.1768 2.586 2.7982 0 1.6213-1.08 2.799-2.586 2.799-1.517 0-2.618-1.1769-2.618-2.7986zm5.204-4.1105h-.218c-.007-.0084-.018-.0205-.021-.0232-.692-.7611-1.769-1.1855-2.949-1.1855-2.841 0-4.78 2.2427-4.78 5.3192s1.939 5.3194 4.78 5.3194c1.27 0 2.309-.5003 2.949-1.1855h.239v1.0751c0 1.5186-.651 2.1067-2.104 2.1067h-4.269v2.5689h4.792c2.941 0 4.346-1.5296 4.346-4.3484v-10.6508h-2.765zm-38.3632 3.1204v6.3095h-2.7643v-5.8901c0-1.296-.9188-2.1795-2.2232-2.1795s-2.2233.8835-2.2233 2.1795v5.8901h-2.7642v-10.434h2.7642v1.0041h.2079c.7021-.789 1.7469-1.2087 2.9417-1.2087 2.3903 0 4.0612 1.7737 4.0612 4.3291zm13.8902 6.3093h2.764v-14.4517h-2.764zm39.537-8.3131c1.196 0 2.139.7673 2.514 1.9338h-5.01c.373-1.1665 1.308-1.9338 2.496-1.9338zm0-2.3253c-2.986 0-5.406 2.2859-5.406 5.4217 0 3.1169 2.339 5.4213 5.494 5.4213 2.341 0 4.443-1.3334 5.147-3.4068h-2.954c-.444.6899-1.302 1.0815-2.193 1.0815-1.4 0-2.395-.9234-2.677-2.284h5.199 2.753.007l-.006-.0085c.036-.2616.061-.528.061-.8035 0-3.1358-2.419-5.4217-5.425-5.4217zm-9.861 10.6386h2.764v-10.434h-2.764zm0-11.8827h2.764v-2.5692h-2.764zm-19.933 9.518c-1.53 0-2.641-1.1996-2.641-2.8522 0-1.6529 1.111-2.8527 2.641-2.8527 1.542 0 2.661 1.1998 2.661 2.8527 0 1.6793-1.094 2.8522-2.661 2.8522zm0-8.2739c-2.986 0-5.406 2.2858-5.406 5.4217 0 3.1169 2.382 5.4213 5.406 5.4213 3.043 0 5.425-2.2856 5.425-5.4213 0-3.1359-2.42-5.4217-5.425-5.4217zm-16.741 8.2739c-1.531 0-2.642-1.1996-2.642-2.8522 0-1.6529 1.111-2.8527 2.642-2.8527 1.542 0 2.66 1.1998 2.66 2.8527 0 1.6793-1.093 2.8522-2.66 2.8522zm0-8.2739c-2.986 0-5.4056 2.2858-5.4056 5.4217 0 3.1169 2.3816 5.4213 5.4056 5.4213 3.044 0 5.425-2.2856 5.425-5.4213 0-3.1359-2.42-5.4217-5.425-5.4217zm-58.7244.2046h4.2644v2.569h-4.2644v3.1894c0 1.5187.6514 2.1066 2.1041 2.1066h2.1603v2.569h-2.6829c-2.942 0-4.346-1.5296-4.346-4.3485v-10.1034h2.7645zm25.2155 6.3581h2.8515c-.3649 2.5012-2.5276 4.2803-5.1721 4.2803-3.0241 0-5.3619-2.3044-5.3619-5.4213 0-3.1358 2.3755-5.4217 5.3619-5.4217 2.6113 0 4.7987 1.6447 5.1704 4.1925h-2.8585c-.3146-1.0657-1.1719-1.6235-2.3117-1.6235-1.5309 0-2.5979 1.1998-2.5979 2.8527 0 1.6526 1.067 2.8522 2.5979 2.8522 1.1629 0 2.0569-.6577 2.3204-1.7112zm14.3998-2.2336v6.3095h-2.7643v-5.8901c0-1.2962-.9188-2.1795-2.2232-2.1795-1.3046 0-2.2232.8833-2.2232 2.1795v5.8901h-2.7645v-14.4519h2.7645v5.022h.2077c.7022-.789 1.7468-1.2087 2.9416-1.2087 2.3907 0 4.0614 1.7737 4.0614 4.3291zm-28.844-2.0038c1.196 0 2.1383.7673 2.5137 1.9338h-5.0099c.3727-1.1665 1.3084-1.9338 2.4962-1.9338zm0-2.3253c-2.9864 0-5.4058 2.2859-5.4058 5.4217 0 3.1169 2.3387 5.4213 5.4936 5.4213 2.3404 0 4.4422-1.3334 5.1465-3.4068h-2.9534c-.4443.6899-1.3025 1.0815-2.1931 1.0815-1.3999 0-2.3953-.9234-2.677-2.284h5.1986 2.7536.0064l-.0055-.0085c.0358-.2614.0608-.528.0608-.8035 0-3.1358-2.4194-5.4217-5.4247-5.4217zm33.6844-10.1954h-2.683c-2.9419 0-4.346-1.5297-4.346-4.3484v-10.1034h2.7644v4.01771h4.2646v2.56901h-4.2646v3.18962c0 1.51866.6516 2.10656 2.1041 2.10656h2.1605zm-39.2518-5.21699c0 1.65279-1.1007 2.85239-2.6177 2.85239-1.5062 0-2.5862-1.1996-2.5862-2.85239 0-1.65283 1.08-2.85267 2.5862-2.85267 1.517 0 2.6177 1.19984 2.6177 2.85267zm-5.2039 4.21339h.2388c.6404.6985 1.679 1.2083 2.949 1.2083 2.8416 0 4.7804-2.286 4.7804-5.42169 0-3.13573-1.9388-5.42168-4.7804-5.42168-1.18 0-2.2573.43267-2.949 1.20824l-.2388.00062v-1.00428h-2.7645v14.45159h2.7645zm66.4924-7.30973c1.196 0 2.138.76748 2.514 1.93374h-5.011c.373-1.16626 1.309-1.93374 2.497-1.93374zm.087 8.51783c2.341 0 4.443-1.3336 5.147-3.407h-2.953c-.445.6899-1.303 1.0817-2.194 1.0817-1.399 0-2.395-.9235-2.677-2.2841h5.199 2.754.006l-.005-.0083c.036-.26165.061-.52807.061-.80379 0-3.13573-2.42-5.42168-5.425-5.42168-2.987 0-5.406 2.28595-5.406 5.42168 0 3.11699 2.339 5.42149 5.493 5.42149zm-20.3539-.2045h2.7642v-10.43409h-2.7642zm0-11.88264h2.7642v-2.56916h-2.7642zm-14.0017 11.88264h2.7643v-10.43409h-2.7643zm0-11.88264h2.7643v-2.56916h-2.7643zm-17.5991 3.81298c1.5414 0 2.6602 1.19984 2.6602 2.85267 0 1.67939-1.0938 2.85219-2.6602 2.85219-1.5308 0-2.6417-1.1994-2.6417-2.85219 0-1.65283 1.1109-2.85267 2.6417-2.85267zm0 8.27416c3.0431 0 5.4246-2.2858 5.4246-5.42149 0-3.13573-2.4196-5.42168-5.4246-5.42168-2.9866 0-5.4061 2.28595-5.4061 5.42168 0 3.11699 2.3818 5.42149 5.4061 5.42149zm43.0387-.2045 3.148-10.43409h-2.884l-2.139 7.86499h-.439l-2.1389-7.86499h-2.8838l3.1477 10.43409z" fill="#212121"/></g></svg>