<svg fill="none" height="32" viewBox="0 0 32 32" width="32" xmlns="http://www.w3.org/2000/svg"><path clip-rule="evenodd" d="m0 25.6c0 2.8045 0 4.3635 1.01826 5.3817 1.01825 1.0183 2.57728 1.0183 5.38174 1.0183h19.2c2.8045 0 4.3635 0 5.3817-1.0183 1.0183-1.0182 1.0183-2.5772 1.0183-5.3817v-19.2c0-2.80446 0-4.36349-1.0183-5.38174-1.0182-1.01826-2.5772-1.01826-5.3817-1.01826h-19.2c-2.80446 0-4.36349 0-5.38174 1.01826-1.01826 1.01825-1.01826 2.57728-1.01826 5.38174z" fill="#f00" fill-rule="evenodd"/><g fill="#fff"><path d="m21.8261 13.62h4.3605v-2.62h-4.3605v-4h-2.8261v10.5306c0 2.882 1.4355 4.4458 4.4432 4.4458h2.7434v-2.6265h-2.2091c-1.485 0-2.1514-.6011-2.1514-2.1538z"/><path clip-rule="evenodd" d="m12.0858 10.8c-1.2065 0-2.30793.4424-3.01521 1.2355l-.24429.0005v-1.036h-2.8263v15h2.8263v-5.3487h.24429c.65483.7142 1.71681 1.2354 3.01521 1.2354 2.9053 0 4.8877-2.3373 4.8877-5.5434s-1.9824-5.5433-4.8877-5.5433zm-.615 8.4599c-1.54026 0-2.6445-1.2267-2.6445-2.9166s1.10424-2.9165 2.6445-2.9165c1.5506 0 2.6762 1.2266 2.6762 2.9165 0 1.6898-1.1256 2.9166-2.6762 2.9166z" fill-rule="evenodd"/></g></svg>