<svg xmlns="http://www.w3.org/2000/svg" fill="none" viewBox="0 0 32 32"><path fill="red" d="M0 25.6c0 2.8 0 4.36 1.02 5.38C2.04 32 3.6 32 6.4 32h19.2c2.8 0 4.36 0 5.38-1.02C32 29.96 32 28.4 32 25.6V6.4c0-2.8 0-4.36-1.02-5.38C29.96 0 28.4 0 25.6 0H6.4C3.6 0 2.04 0 1.02 1.02 0 2.04 0 3.6 0 6.4v19.2Z"/><path fill="#fff" d="M11.47 19.26c-1.54 0-2.64-1.23-2.64-2.92s1.1-2.91 2.64-2.91c1.55 0 2.68 1.22 2.68 2.91 0 1.7-1.13 2.92-2.68 2.92Zm.62-8.46a4 4 0 0 0-3.02 1.24h-.24V11H6v15h2.83v-5.35h.24a4.06 4.06 0 0 0 3.02 1.24c2.9 0 4.88-2.34 4.88-5.55 0-3.2-1.98-5.54-4.88-5.54Z"/><path fill="#fff" d="M19 7h2.83v4h4.36v2.62h-4.36v3.58c0 1.55.66 2.15 2.15 2.15h2.2v2.63h-2.74c-3 0-4.44-1.57-4.44-4.45V7Z"/></svg>